<svg width="270" height="228" viewBox="0 0 270 228" fill="none" xmlns="http://www.w3.org/2000/svg">
<path d="M53.5 27H162.962C190.359 27 204.057 27 211.953 32.7515C218.839 37.7677 223.268 45.4753 224.134 53.9507C225.126 63.6683 218.228 75.5029 204.432 99.1721L137.5 214H269.5" stroke="#51233B" stroke-width="27"/>
<path d="M10 27H48.9624C76.3589 27 90.0572 27 97.9527 32.7515C104.839 37.7677 109.268 45.4753 110.134 53.9507C111.126 63.6683 104.228 75.5029 90.4318 99.1721L23.5 214" stroke="white" stroke-width="53"/>
<path d="M10 27H48.9624C76.3589 27 90.0572 27 97.9527 32.7515C104.839 37.7677 109.268 45.4753 110.134 53.9507C111.126 63.6683 104.228 75.5029 90.4318 99.1721L23.5 214H132.5" stroke="#51233B" stroke-width="27"/>
</svg>
